# xmcd
# 
# Track frame offsets:
#     183
#     13148
#     27325
#     41950
#     56770
#     70065
#     84350
#     97390
#     110558
#     124270
#     136730
#     150960
#     165815
#     180535
#     195193
#     208325
#     221863
#     235048
#     246945
#     258215
#     269195
#     282188
#     298493
#     310688
# 
# Disc length: 4323
# 
# Revision: 2
# Processed by: cddbd v1.5.2PL0 Copyright (c) Steve Scherf et al.
# Submitted via: BonkEnc v1.0rc1
# 
DISCID=6710e118
DTITLE=Sidney Bechet - Really the Blues
DYEAR=0
DGENRE=Jazz
TTITLE0=Sweetie Dear
TTITLE1=I Want You Tonight
TTITLE2=I've Found A New Baby
TTITLE3=Lay Your Racket
TTITLE4=Maple Leaf Rag
TTITLE5=Shag
TTITLE6=Okey Doke
TTITLE7=Characteristic Blues
TTITLE8=Viper Mad
TTITLE9=Blackstick
TTITLE10=When The Sun Sets Down South
TTITLE11=Sweet Patootie
TTITLE12=Freight Train Blues
TTITLE13=Trixie Blues
TTITLE14=My Daddy Rocks Me (Part I)
TTITLE15=My Daddy Rocks Me (Part II)
TTITLE16=What A Dream
TTITLE17=Hold Tight
TTITLE18=Jungle Drums
TTITLE19=Chant In The Night
TTITLE20=Ja-Da
TTITLE21=Really The Blues
TTITLE22=When You And I Were Young Maggie
TTITLE23=Weary Blues
EXTD=The Essential Volume 2
EXTT0=
EXTT1=
EXTT2=
EXTT3=
EXTT4=
EXTT5=
EXTT6=
EXTT7=
EXTT8=
EXTT9=
EXTT10=
EXTT11=
EXTT12=
EXTT13=
EXTT14=
EXTT15=
EXTT16=
EXTT17=
EXTT18=
EXTT19=
EXTT20=
EXTT21=
EXTT22=
EXTT23=
PLAYORDER=
